<svg xmlns="http://www.w3.org/2000/svg" viewBox="0 0 38.000089 42.000031">
  <defs>
    <mask id="c-cutout" maskUnits="userSpaceOnUse" x="0" y="0" width="38.000089" height="42.000031">
      <rect x="0" y="0" width="38.000089" height="42.000031" fill="#ffffff" />
      <path
        fill="#000000"
        transform="translate(-2, -2.63158) scale(0.137255)"
        d="M153,274.175c-56.243,0-102-45.757-102-102s45.757-102,102-102c36.292,0,70.139,19.53,88.331,50.968l-44.143,25.544c-9.105-15.736-26.038-25.512-44.188-25.512c-28.122,0-51,22.878-51,51c0,28.121,22.878,51,51,51 c18.152,0,35.085-9.776,44.191-25.515l44.143,25.543C223.142,254.644,189.294,274.175,153,274.175z"
      />
    </mask>
  </defs>
  <g mask="url(#c-cutout)">
    <path
      fill="#6f7782"
      fill-rule="evenodd"
      clip-rule="evenodd"
      d="m 17.903,0.28628166 c 0.679,-0.381 1.515,-0.381 2.193,0 C 23.451,2.1692817 33.547,7.8372817 36.903,9.7202817 37.582,10.100282 38,10.804282 38,11.566282 c 0,3.766 0,15.101 0,18.867 0,0.762 -0.418,1.466 -1.097,1.847 -3.355,1.883 -13.451,7.551 -16.807,9.434 -0.679,0.381 -1.515,0.381 -2.193,0 -3.355,-1.883 -13.451,-7.551 -16.807,-9.434 -0.678,-0.381 -1.096,-1.084 -1.096,-1.846 0,-3.766 0,-15.101 0,-18.867 0,-0.762 0.418,-1.466 1.097,-1.8470003 3.354,-1.883 13.452,-7.551 16.806,-9.43400004 z"
    />
    <path
      fill="#888888"
      fill-rule="evenodd"
      clip-rule="evenodd"
      d="m 0.304,31.404282 c -0.266,-0.356 -0.304,-0.694 -0.304,-1.149 0,-3.744 0,-15.014 0,-18.759 0,-0.758 0.417,-1.458 1.094,-1.8360003 3.343,-1.872 13.405,-7.507 16.748,-9.38000004 0.677,-0.379 1.594,-0.371 2.271,0.008 3.343,1.87200004 13.371,7.45900004 16.714,9.33100004 0.27,0.152 0.476,0.335 0.66,0.5760003 z"
    />
    <path
      fill="#5f6671"
      fill-rule="evenodd"
      clip-rule="evenodd"
      d="m 37.485,10.205282 c 0.516,0.483 0.506,1.211 0.506,1.784 0,3.795 -0.032,14.589 0.009,18.384 0.004,0.396 -0.127,0.813 -0.323,1.127 l -19.084,-10.5 z"
    />
  </g>
</svg>
