<?xml version="1.0" standalone="no"?>
<!DOCTYPE svg PUBLIC "-//W3C//DTD SVG 20010904//EN"
 "http://www.w3.org/TR/2001/REC-SVG-20010904/DTD/svg10.dtd">
<svg version="1.0" xmlns="http://www.w3.org/2000/svg"
 width="120.000000pt" height="120.000000pt" viewBox="0 0 120.000000 120.000000"
 preserveAspectRatio="xMidYMid meet">

<g transform="translate(0.000000,120.000000) scale(0.100000,-0.100000)"
fill="#5f5f5f" stroke="none">
<path d="M440 1186 c-210 -58 -370 -220 -426 -429 -23 -88 -18 -243 11 -336
14 -43 33 -89 43 -101 18 -22 18 -22 90 87 l73 110 2 94 c2 80 7 102 31 150
35 70 104 139 176 176 49 25 67 28 158 30 l102 1 105 67 c58 37 105 71 105 76
0 13 -66 44 -144 68 -79 24 -250 28 -326 7z"/>
<path fill="#7c7c7c" d="M910 1007 l-235 -150 -75 -2 c-89 -1 -137 -22 -193 -84 -44 -48 -72
-134 -62 -190 6 -37 0 -49 -155 -281 -88 -134 -159 -244 -157 -246 2 -2 113
66 248 151 l243 155 66 0 c151 1 253 101 253 250 l1 65 151 230 c181 275 168
255 158 254 -4 0 -114 -69 -243 -152z"/>
<path d="M1026 798 c-74 -113 -74 -113 -69 -170 7 -73 -24 -175 -72 -240 -71
-97 -203 -156 -322 -145 l-64 6 -106 -68 c-59 -37 -108 -72 -110 -77 -5 -14
98 -61 172 -79 129 -33 302 -9 428 57 90 48 195 156 240 248 20 41 44 102 52
135 19 75 19 202 0 283 -14 58 -59 162 -70 162 -3 0 -39 -51 -79 -112z"/>
</g>
</svg>
