<svg xmlns="http://www.w3.org/2000/svg" width="256" height="256" viewBox="0 0 128 128"><path fill="#606060" d="m8 70.2l31.879-12.88a82.62 82.62 0 0 1 10.883-11.8c2.636-1.399 7.597-.641 16.68-11.918c8.796-11 11.597-20.403 15.718-20.403c6.52 0 11.32 14.082 18.602 35.403A461.75 461.75 0 0 0 120 96.48c-7.602-7.082-14.078-14.718-21.48-14.52c-6.88.161-14.52 8.321-22.88 18.802C69 109.16 60.2 114.922 56.763 114.8c0 0-8.883-25.121-16.32-29.2a10.563 10.563 0 0 0-9.563.797L8 70.16zm0 0"/><path fill="#3f3f3f" d="M79.2 16.078c-2.68 3.602-5.92 10.203-11.76 17.524c-9.082 11.277-14 10.52-16.68 11.918a78.673 78.673 0 0 0-10.882 11.8l13.2 9.64C64.28 51.68 70.28 35.122 74.96 24.399a54.649 54.649 0 0 1 4.238-8.32zm0 0"/><path fill="#888888" d="M83.2 13.2c-8.72 0-14.68 45.921-46.88 71.562c9.04-1.48 16.88 20.957 20.48 30.039c16-2.723 28.802-33.32 41.72-32.84c7.402.277 13.878 7.437 21.48 14.52C102.64 60 94.52 13.198 83.2 13.198zm0 0"/></svg>