<?xml version="1.0" standalone="no"?>
<!DOCTYPE svg PUBLIC "-//W3C//DTD SVG 20010904//EN"
 "http://www.w3.org/TR/2001/REC-SVG-20010904/DTD/svg10.dtd">
<svg version="1.0" xmlns="http://www.w3.org/2000/svg"
 width="200.000000pt" height="200.000000pt" viewBox="0 0 200.000000 200.000000"
 preserveAspectRatio="xMidYMid meet">

<g transform="translate(0.000000,200.000000) scale(0.100000,-0.100000)"
fill="#000000" stroke="none">
<path d="M1285 1512 c-24 -12 -58 -42 -86 -79 -49 -63 -69 -73 -151 -73 -45 0
-136 -29 -204 -65 -26 -14 -55 -25 -64 -25 -10 0 -35 -14 -56 -31 -22 -17 -53
-37 -71 -44 -58 -24 -125 -108 -148 -185 -9 -30 -65 -107 -128 -175 -36 -38
-47 -58 -47 -82 0 -47 24 -43 106 17 117 85 170 88 274 15 54 -38 71 -45 111
-45 72 0 89 -20 94 -106 1 -39 9 -81 17 -93 17 -29 120 -81 159 -81 42 0 89
26 89 50 0 29 -68 60 -129 60 -62 0 -72 14 -79 111 l-5 68 34 21 c45 27 81 23
89 -10 4 -16 13 -25 26 -25 33 -1 44 -14 37 -45 -6 -33 18 -80 41 -80 8 0 19
14 25 31 9 27 6 40 -23 102 -23 48 -32 76 -26 87 5 9 39 30 77 48 124 58 193
148 201 262 3 49 0 74 -12 98 -38 74 -2 103 137 110 75 4 87 7 87 22 0 22 -15
34 -65 50 -21 7 -72 33 -112 58 -86 53 -138 62 -198 34z"/>
</g>
</svg>
